# xmcd
#
# Track frame offsets:
#	150
#	11958
#	24309
#	32249
#	46162
#	55941
#	71103
#	80870
#	92961
#	106649
#	123802
#	134953
#
# Disc length: 2003 seconds
#
# Revision: 0
# Processed by: cddbd v1.5.2PL0 Copyright (c) Steve Scherf et al.
# Submitted via: audiograbber 1.83.01
#
DISCID=a707d10c
DTITLE=Naomi Bristow - Cowboy Sweetheart
DYEAR=2008
DGENRE=
TTITLE0=Cowboy Sweetheart
TTITLE1=Act Naturally
TTITLE2=Chime Bells
TTITLE3=Coal Miner's Daughter
TTITLE4=Country Sunshine
TTITLE5=Daddy's Hands
TTITLE6=He Taught Me How To Yodel
TTITLE7=Little Bitty
TTITLE8=Rocky Top
TTITLE9=Suds In The Bucket
TTITLE10=My Little Lady Who
TTITLE11=In The Garden
EXTD=
EXTT0=
EXTT1=
EXTT2=
EXTT3=
EXTT4=
EXTT5=
EXTT6=
EXTT7=
EXTT8=
EXTT9=
EXTT10=
EXTT11=
PLAYORDER=
